<svg xmlns="http://www.w3.org/2000/svg" width="20" height="20" viewBox="0 0 20 20">
  <g id="组_8814" data-name="组 8814" transform="translate(-108 -22)">
    <rect id="矩形_123" data-name="矩形 123" width="20" height="20" transform="translate(108 22)" fill="none"/>
    <path id="路径_3566" data-name="路径 3566" d="M10,0A10,10,0,1,0,20,10,10.006,10.006,0,0,0,10,0Zm8.482,9.259H15.889a13.126,13.126,0,0,0-2-6.815,8.47,8.47,0,0,1,4.592,6.815ZM9.259,1.593V9.26H5.592c.148-3.815,1.7-7,3.667-7.667Zm0,9.148v7.667C7.3,17.74,5.74,14.556,5.592,10.741Zm1.481,7.667V10.74h3.667c-.148,3.815-1.7,7-3.667,7.667Zm0-9.148V1.593c1.963.667,3.519,3.852,3.667,7.667H10.74ZM6.074,2.444a13.126,13.126,0,0,0-2,6.815H1.481A8.634,8.634,0,0,1,6.074,2.444Zm-4.555,8.3H4.111a13.126,13.126,0,0,0,2,6.815A8.47,8.47,0,0,1,1.518,10.74Zm12.407,6.815a13.126,13.126,0,0,0,2-6.815h2.593a8.634,8.634,0,0,1-4.593,6.815Z" transform="translate(108 22)" fill="#fff"/>
  </g>
</svg>
