<svg xmlns="http://www.w3.org/2000/svg" width="20" height="20" viewBox="0 0 20 20">
  <g id="组_8812" data-name="组 8812" transform="translate(-22 -22)">
    <rect id="矩形_125" data-name="矩形 125" width="20" height="20" transform="translate(22 22)" fill="none"/>
    <path id="路径_3562" data-name="路径 3562" d="M51.721,85.5H36.887A2.584,2.584,0,0,0,34.3,88.087V100.82a2.584,2.584,0,0,0,2.583,2.583H51.721A2.584,2.584,0,0,0,54.3,100.82V88.087A2.584,2.584,0,0,0,51.721,85.5Zm1.158,11.04H47.112a2.1,2.1,0,1,1,0-4.2h5.766Zm0,4.277a1.16,1.16,0,0,1-1.158,1.158H36.887a1.16,1.16,0,0,1-1.158-1.158V88.087a1.153,1.153,0,0,1,1.158-1.158H51.721a1.16,1.16,0,0,1,1.158,1.158v2.84H47.112a3.526,3.526,0,1,0,0,7.052h5.766Zm-5.263-6.367a.932.932,0,1,1,.932.932A.933.933,0,0,1,47.616,94.454Z" transform="translate(-12.304 -62.454)" fill="#fff"/>
  </g>
</svg>
