<svg xmlns="http://www.w3.org/2000/svg" xmlns:xlink="http://www.w3.org/1999/xlink" width="7.548" height="11.046" viewBox="0 0 7.548 11.046"><defs><style>.a{fill:url(#a);}.b{fill:#808997;}</style><linearGradient id="a" x1="0.5" x2="0.5" y2="1" gradientUnits="objectBoundingBox"><stop offset="0" stop-color="#5ac27c"/><stop offset="1" stop-color="#b2e235"/></linearGradient></defs><g transform="translate(-1735.5 -691.698)"><path class="a" d="M164.762,11.048a.445.445,0,0,0,.31-.124.452.452,0,0,0,.132-.229.448.448,0,0,0,.063-.225V.541a.45.45,0,0,0-.9,0V9.53l-1.482-1.553a.45.45,0,0,0-.651.62l2.2,2.31a.448.448,0,0,0,.325.14Z" transform="translate(1573.39 691.696)"/><path class="b" d="M167.4,10.507V1.519l1.479,1.553a.45.45,0,0,0,.652-.62l-2.2-2.31A.45.45,0,0,0,166.7.125a.443.443,0,0,0-.132.231A.435.435,0,0,0,166.5.58v9.928a.449.449,0,0,0,.9,0Z" transform="translate(1573.39 691.696)"/></g></svg>