<svg xmlns="http://www.w3.org/2000/svg" width="22.576" height="22.602" viewBox="0 0 22.576 22.602">
  <g id="swap_candlestickbai_icon" transform="translate(-1665 -549.699)">
    <path id="路径_3580" data-name="路径 3580" d="M85.552,84.675a.867.867,0,0,1-.271.645.856.856,0,0,1-.645.258H63.879a.907.907,0,0,1-.645-.258.856.856,0,0,1-.258-.645v-20.8a.907.907,0,0,1,.258-.645.856.856,0,0,1,.645-.258.907.907,0,0,1,.645.258.867.867,0,0,1,.271.645v19.88H84.649a.907.907,0,0,1,.645.258.96.96,0,0,1,.258.658ZM66.924,79.063h.916v.645a.9.9,0,1,0,1.806,0v-.645h.916a.245.245,0,0,0,.245-.245v-5.96a.245.245,0,0,0-.245-.245h-.916V67.065a.9.9,0,1,0-1.806,0v5.547h-.916a.245.245,0,0,0-.245.245V78.8A.256.256,0,0,0,66.924,79.063Zm6.45-3.1h.916v5.418a.9.9,0,1,0,1.806,0V75.967h.916a.245.245,0,0,0,.245-.245V72.858a.245.245,0,0,0-.245-.245H76.1V70.291a.9.9,0,0,0-1.806,0v2.322h-.916a.245.245,0,0,0-.245.245v2.851A.256.256,0,0,0,73.374,75.967Zm6.45-3.354h.916v5.612a.9.9,0,1,0,1.806,0V72.613h.916a.245.245,0,0,0,.245-.245v-5.96a.245.245,0,0,0-.245-.245h-.916V63.9a.9.9,0,1,0-1.806,0v2.258h-.916a.245.245,0,0,0-.245.245v5.947A.256.256,0,0,0,79.824,72.613Z" transform="translate(1602.024 486.723)" fill="#fff"/>
  </g>
</svg>
