<svg xmlns="http://www.w3.org/2000/svg" width="14" height="15" viewBox="0 0 14 15"><path d="M160.155,163.094a.608.608,0,0,1-.565.643H152.2a2.293,2.293,0,0,1-2.225-2.358V151.093a2.291,2.291,0,0,1,2.225-2.357h7.391a.648.648,0,0,1,0,1.286H152.2a1.085,1.085,0,0,0-1.094,1.072v10.285a1.085,1.085,0,0,0,1.094,1.072h7.391A.608.608,0,0,1,160.155,163.094Zm3.694-6.518-.062.072-3.394,3.428a.631.631,0,0,1-.869.037.647.647,0,0,1-.093-.873l.062-.073,2.306-2.331h-6.354c-.192,0-.351-.238-.378-.548l0-.1c0-.323.141-.59.325-.636l.057-.007H161.8l-2.307-2.331a.648.648,0,0,1-.062-.837l.062-.072a.632.632,0,0,1,.828-.062l.072.062,3.394,3.428a.648.648,0,0,1,.062.837Z" transform="translate(-149.973 -148.736)" fill="#FFF"/></svg>