<svg id="swap_line_icon" xmlns="http://www.w3.org/2000/svg" width="22.575" height="22.601" viewBox="0 0 22.575 22.601">
  <path id="路径_3577" data-name="路径 3577" d="M101.671,132.793H81.808V112.9a.9.9,0,1,0-1.808,0V133.7a.907.907,0,0,0,.9.9h20.767a.9.9,0,1,0,0-1.808Z" transform="translate(-80 -112)"/>
  <path id="路径_3578" data-name="路径 3578" d="M193.441,281.1l5.13-5.13,4.2,4.2a.935.935,0,0,0,.636.254.837.837,0,0,0,.594-.254l6.995-7.146a.847.847,0,0,0,0-1.145.806.806,0,0,0-1.145,0l-6.4,6.552-4.239-4.239a1.261,1.261,0,0,0-.636-.212.837.837,0,0,0-.594.254l-5.723,5.681a.839.839,0,0,0,1.187,1.187Z" transform="translate(-188.836 -266.254)"/>
</svg>
