<svg xmlns="http://www.w3.org/2000/svg" width="16" height="16" viewBox="0 0 16 16"><defs><style>.a,.d{fill:none;}.a{stroke:#707070;opacity:0;}.b{fill:#999;}.c{stroke:none;}</style></defs><g transform="translate(-360 -1188)"><g class="a" transform="translate(360 1188)"><rect class="c" width="16" height="16"/><rect class="d" x="0.5" y="0.5" width="15" height="15"/></g><path class="b" d="M65.5,163.111H78.3a1.583,1.583,0,0,1,1.6,1.538l-8,4.343-8-4.339a1.575,1.575,0,0,1,1.592-1.541Zm-1.592,3.2L63.9,174a1.583,1.583,0,0,0,1.6,1.556H78.3A1.583,1.583,0,0,0,79.9,174v-7.688L72.1,170.452a.405.405,0,0,1-.383,0l-7.8-4.138Zm0,0" transform="translate(296.096 1026.889)"/></g></svg>