<svg xmlns="http://www.w3.org/2000/svg" width="16" height="16" viewBox="0 0 16 16"><defs><style>.a,.d{fill:none;}.a{stroke:#707070;opacity:0;}.b{fill:#999;}.c{stroke:none;}</style></defs><g transform="translate(-498 -1188)"><g class="a" transform="translate(498 1188)"><rect class="c" width="16" height="16"/><rect class="d" x="0.5" y="0.5" width="15" height="15"/></g><path class="b" d="M64.707,63.9a.993.993,0,0,1,1.118.4l5.153,7.726L76.131,64.3a1,1,0,0,1,1.826.555V76.814a1,1,0,0,1-1.994,0v-8.67l-4.156,6.234a1,1,0,0,1-1.657,0l-4.156-6.234v8.67a1,1,0,1,1-1.994,0V64.851A1,1,0,0,1,64.707,63.9Z" transform="translate(435 1125.148)"/></g></svg>