<svg xmlns="http://www.w3.org/2000/svg" xmlns:xlink="http://www.w3.org/1999/xlink" width="12" height="12" viewBox="0 0 12 12">
  <defs>
    <linearGradient id="linear-gradient" x1="0.5" x2="0.5" y2="1" gradientUnits="objectBoundingBox">
      <stop offset="0" stop-color="#5ac27c"/>
      <stop offset="1" stop-color="#b2e235"/>
    </linearGradient>
  </defs>
  <path id="路径_141" data-name="路径 141" d="M1468.542,1038h-11.083a.494.494,0,0,0-.175.033.427.427,0,0,0-.251.251.493.493,0,0,0-.033.175.463.463,0,0,0,.458.469h11.083a.346.346,0,0,0,.175-.044.455.455,0,0,0,.153-.1.414.414,0,0,0,.1-.142.553.553,0,0,0,.033-.185.493.493,0,0,0-.033-.175.427.427,0,0,0-.251-.251A.494.494,0,0,0,1468.542,1038Zm-5.116,2.007a.421.421,0,0,0-.24-.12.358.358,0,0,0-.186-.044.385.385,0,0,0-.186.044.421.421,0,0,0-.24.12l-4.527,4.527a.511.511,0,0,0,0,.72.591.591,0,0,0,.175.109.359.359,0,0,0,.186.044.373.373,0,0,0,.2-.044.591.591,0,0,0,.175-.109l3.764-3.764v8.051a.457.457,0,0,0,.884.175.494.494,0,0,0,.033-.175v-8.051l3.775,3.764a.433.433,0,0,0,.164.109.373.373,0,0,0,.2.044.359.359,0,0,0,.186-.044.591.591,0,0,0,.175-.109.511.511,0,0,0,0-.72Z" transform="translate(-1457 -1038)" fill="url(#linear-gradient)"/>
</svg>
