<svg xmlns="http://www.w3.org/2000/svg" width="16" height="14.636" viewBox="0 0 16 14.636"><defs><style>.a{fill:#999;}</style></defs><path class="a" d="M16.421,73.574H15.338a.564.564,0,0,0-.564.564v6.277a.564.564,0,0,1-.564.564H5.029a.564.564,0,0,0-.564.564v.579a.777.777,0,0,0,.823.824h8.665l2.328,2.327a.564.564,0,0,0,.964-.4V74.4a.778.778,0,0,0-.824-.823Zm-3.659,6.279a.777.777,0,0,0,.824-.823v-7.4a.778.778,0,0,0-.824-.824H2.066a.778.778,0,0,0-.823.824V81.783a.564.564,0,0,0,.964.4l2.328-2.328h8.227Z" transform="translate(-1.244 -70.803)"/></svg>