<svg xmlns="http://www.w3.org/2000/svg" width="16" height="16" viewBox="0 0 16 16"><defs><style>.a,.d{fill:none;}.a{stroke:#707070;opacity:0;}.b{fill:#999;}.c{stroke:none;}</style></defs><g transform="translate(-406 -1188)"><g class="a" transform="translate(406 1188)"><rect class="c" width="16" height="16"/><rect class="d" x="0.5" y="0.5" width="15" height="15"/></g><path class="b" d="M78.879,64.128a.617.617,0,0,0-.688,0L64.413,70.969c-.274,0-.413.274-.413.548s.137.548.276.548l3.307,2.053a.652.652,0,0,0,.827-.137l7.3-6.568.276.137-6.613,6.975a.5.5,0,0,0-.137.411v3.011a.752.752,0,0,0,.413.685.607.607,0,0,0,.688-.137l1.654-1.642L75.3,79.042a.507.507,0,0,0,.413.137h.276c.276-.137.413-.274.413-.548l2.755-13.683C79.155,64.537,79.155,64.265,78.879,64.128Z" transform="translate(342.845 1124.398)"/></g></svg>